<?xml version="1.0" standalone="no"?><!DOCTYPE svg PUBLIC "-//W3C//DTD SVG 1.1//EN" "http://www.w3.org/Graphics/SVG/1.1/DTD/svg11.dtd"><svg t="1716901686550" class="icon" viewBox="0 0 1024 1024" version="1.1" xmlns="http://www.w3.org/2000/svg" p-id="13592" xmlns:xlink="http://www.w3.org/1999/xlink" width="200" height="200"><path d="M102.4 64h819.2a51.2 51.2 0 0 1 51.2 51.2v793.6a51.2 51.2 0 0 1-51.2 51.2H102.4a51.2 51.2 0 0 1-51.2-51.2V115.2a51.2 51.2 0 0 1 51.2-51.2z m38.4 89.6a12.8 12.8 0 0 0-12.8 12.8v76.8a12.8 12.8 0 0 0 12.8 12.8h51.2a12.8 12.8 0 0 0 12.8-12.8v-76.8a12.8 12.8 0 0 0-12.8-12.8h-51.2z m0 153.6a12.8 12.8 0 0 0-12.8 12.8v76.8a12.8 12.8 0 0 0 12.8 12.8h51.2a12.8 12.8 0 0 0 12.8-12.8v-76.8a12.8 12.8 0 0 0-12.8-12.8h-51.2z m0 153.6a12.8 12.8 0 0 0-12.8 12.8v76.8a12.8 12.8 0 0 0 12.8 12.8h51.2a12.8 12.8 0 0 0 12.8-12.8v-76.8a12.8 12.8 0 0 0-12.8-12.8h-51.2z m0 153.6a12.8 12.8 0 0 0-12.8 12.8v76.8a12.8 12.8 0 0 0 12.8 12.8h51.2a12.8 12.8 0 0 0 12.8-12.8v-76.8a12.8 12.8 0 0 0-12.8-12.8h-51.2z m0 153.6a12.8 12.8 0 0 0-12.8 12.8v76.8a12.8 12.8 0 0 0 12.8 12.8h51.2a12.8 12.8 0 0 0 12.8-12.8v-76.8a12.8 12.8 0 0 0-12.8-12.8h-51.2z m691.2-614.4a12.8 12.8 0 0 0-12.8 12.8v76.8a12.8 12.8 0 0 0 12.8 12.8h51.2a12.8 12.8 0 0 0 12.8-12.8v-76.8a12.8 12.8 0 0 0-12.8-12.8h-51.2z m0 153.6a12.8 12.8 0 0 0-12.8 12.8v76.8a12.8 12.8 0 0 0 12.8 12.8h51.2a12.8 12.8 0 0 0 12.8-12.8v-76.8a12.8 12.8 0 0 0-12.8-12.8h-51.2z m0 153.6a12.8 12.8 0 0 0-12.8 12.8v76.8a12.8 12.8 0 0 0 12.8 12.8h51.2a12.8 12.8 0 0 0 12.8-12.8v-76.8a12.8 12.8 0 0 0-12.8-12.8h-51.2z m0 153.6a12.8 12.8 0 0 0-12.8 12.8v76.8a12.8 12.8 0 0 0 12.8 12.8h51.2a12.8 12.8 0 0 0 12.8-12.8v-76.8a12.8 12.8 0 0 0-12.8-12.8h-51.2z m0 153.6a12.8 12.8 0 0 0-12.8 12.8v76.8a12.8 12.8 0 0 0 12.8 12.8h51.2a12.8 12.8 0 0 0 12.8-12.8v-76.8a12.8 12.8 0 0 0-12.8-12.8h-51.2zM518.4 638.9888l116.608 39.9232-1.92-123.2512 73.9968-98.56-117.7984-36.2624L518.4 320l-70.8864 100.8384-117.7984 36.2496 73.9968 98.5728-1.92 123.2512 116.608-39.9232z" fill="#f86496" p-id="13593"></path></svg>