<?xml version="1.0" standalone="no"?><!DOCTYPE svg PUBLIC "-//W3C//DTD SVG 1.1//EN" "http://www.w3.org/Graphics/SVG/1.1/DTD/svg11.dtd"><svg t="1716901651790" class="icon" viewBox="0 0 1049 1024" version="1.1" xmlns="http://www.w3.org/2000/svg" p-id="9958" xmlns:xlink="http://www.w3.org/1999/xlink" width="204.8828125" height="200"><path d="M1036.742744 12.842396a43.107692 43.107692 0 0 0-60.740387-0.624387L921.880475 64.991215a153.849006 153.849006 0 0 0-59.866245-12.063161H187.051669c-84.941634 0-154.04881 68.757518-154.048809 153.274569v611.599749c0 32.218379 10.065122 62.163989 27.223282 86.864747L12.897592 950.746894a42.583207 42.583207 0 0 0-0.624387 60.440681c8.416739 8.516641 19.555807 12.812425 30.694874 12.812425 10.839362 0 21.678724-4.071005 30.045512-12.213014l54.146858-52.773206a153.849006 153.849006 0 0 0 59.866245 12.063161h674.937585c84.941634 0 154.04881-68.757518 154.04881-153.274569V206.202623c0-32.218379-10.065122-62.163989-27.223282-86.864747l47.303574-46.079775c16.933381-16.483822 17.233087-43.557251 0.624387-60.440681zM111.10121 817.802372V206.202623a75.850557 75.850557 0 0 1 75.925484-75.575826h667.469914l-197.056599 192.036527h-96.730065v94.257491l-95.531241 93.108619-68.507764-187.36611h-66.884356L201.43755 673.718782h90.685997l17.332989-52.248721h41.359408l-233.096229 227.152063a74.751635 74.751635 0 0 1-6.618505-30.819752z m616.095337-398.508886c6.943186 9.865318 9.415759 19.730635 9.415758 78.922542 0 59.641465-2.497549 69.007273-9.415758 78.872591-7.942205 11.838381-19.830537 19.730635-41.634139 19.730636h-38.13757V452.061327l52.448525-51.124824c13.06218 2.747304 21.329067 9.415759 27.323184 18.356983zM395.197386 549.465729h-61.439701l31.71887-93.658079 29.720831 93.658079zM937.939714 206.202623v611.599749a75.850557 75.850557 0 0 1-75.925484 75.575826H194.544316l236.417968-230.398876 3.346716 10.73946h90.685996l-27.597914-75.5009 63.287887-61.66448v137.16538h130.821605c36.664016 0 70.855459-10.339852 95.131634-34.516124 41.134629-40.909849 36.664016-85.790801 36.664016-141.011605 0-55.195828 4.470612-100.07678-36.664016-141.011605a107.4945 107.4945 0 0 0-23.676763-17.732597l168.334789-164.06398c4.37071 9.690489 6.64348 20.20517 6.618504 30.819752z" p-id="9959" fill="#f86496"></path></svg>