<?xml version="1.0" standalone="no"?><!DOCTYPE svg PUBLIC "-//W3C//DTD SVG 1.1//EN" "http://www.w3.org/Graphics/SVG/1.1/DTD/svg11.dtd"><svg t="1716901714004" class="icon" viewBox="0 0 1024 1024" version="1.1" xmlns="http://www.w3.org/2000/svg" p-id="15444" xmlns:xlink="http://www.w3.org/1999/xlink" width="200" height="200"><path d="M146.285714 0h731.428572a146.285714 146.285714 0 0 1 146.285714 146.285714v731.428572a146.285714 146.285714 0 0 1-146.285714 146.285714H146.285714a146.285714 146.285714 0 0 1-146.285714-146.285714V146.285714a146.285714 146.285714 0 0 1 146.285714-146.285714z m570.587429 407.771429h-147.017143l94.793143-203.849143c4.754286-14.262857-9.435429-33.28-23.698286-33.28H451.364571c-9.508571 0-19.017143 4.754286-23.698285 14.262857L285.403429 564.224c-4.754286 19.017143 9.435429 33.133714 23.698285 33.133714h165.961143l-47.396571 213.430857v4.681143c0 9.508571 9.508571 19.017143 19.017143 19.017143 4.681143 0 14.189714-4.754286 14.189714-9.508571l275.017143-379.318857c9.435429-19.017143 0-37.888-19.017143-37.888z" fill="#f86496" p-id="15445"></path></svg>